<svg xmlns="http://www.w3.org/2000/svg" xmlns:xlink="http://www.w3.org/1999/xlink" width="500" zoomAndPan="magnify" viewBox="0 0 375 374.999991" height="500" preserveAspectRatio="xMidYMid meet" version="1.0"><defs><g/><clipPath id="148f869064"><path d="M 6.007812 169 L 119 169 L 119 229.964844 L 6.007812 229.964844 Z M 6.007812 169 " clip-rule="nonzero"/></clipPath><clipPath id="d788db5a0e"><path d="M 17 145.214844 L 129.757812 145.214844 L 129.757812 206 L 17 206 Z M 17 145.214844 " clip-rule="nonzero"/></clipPath></defs><g fill="#8c52ff" fill-opacity="1"><g transform="translate(121.057468, 207.41899)"><g><path d="M 7.78125 -16.5625 L 7.78125 -3.640625 L 16.5625 -3.640625 C 17.082031 -3.640625 17.515625 -3.8125 17.859375 -4.15625 C 18.203125 -4.5 18.375 -4.929688 18.375 -5.453125 L 18.375 -16.5625 L 22.921875 -16.5625 L 22.921875 2.71875 C 22.921875 4.113281 22.546875 5.117188 21.796875 5.734375 C 21.054688 6.359375 19.75 6.671875 17.875 6.671875 L 8.78125 6.671875 C 6.914062 6.671875 5.609375 6.359375 4.859375 5.734375 C 4.109375 5.117188 3.734375 4.113281 3.734375 2.71875 L 3.734375 2.46875 L 8.28125 1.71875 L 8.28125 3.234375 L 18.375 3.234375 L 18.375 -1.734375 C 18.039062 -1.128906 17.507812 -0.6875 16.78125 -0.40625 C 16.050781 -0.132812 15.066406 0 13.828125 0 L 8.28125 0 C 6.425781 0 5.117188 -0.320312 4.359375 -0.96875 C 3.609375 -1.613281 3.234375 -2.671875 3.234375 -4.140625 L 3.234375 -16.5625 Z M 7.78125 -16.5625 "/></g></g></g><g fill="#8c52ff" fill-opacity="1"><g transform="translate(147.207536, 207.41899)"><g><path d="M 7.78125 0 L 3.234375 0 L 3.234375 -16.5625 L 7.78125 -16.5625 L 7.78125 -14.921875 C 8.113281 -15.484375 8.644531 -15.894531 9.375 -16.15625 C 10.101562 -16.425781 11.082031 -16.5625 12.3125 -16.5625 L 16.5625 -16.5625 C 18.425781 -16.5625 19.734375 -16.25 20.484375 -15.625 C 21.234375 -15.007812 21.609375 -14.007812 21.609375 -12.625 L 21.609375 0 L 17.0625 0 L 17.0625 -13.125 L 9.484375 -13.125 C 8.992188 -13.125 8.585938 -12.960938 8.265625 -12.640625 C 7.941406 -12.316406 7.78125 -11.90625 7.78125 -11.40625 Z M 7.78125 0 "/></g></g></g><g fill="#8c52ff" fill-opacity="1"><g transform="translate(172.045048, 207.41899)"><g><path d="M 9.890625 0 C 8.035156 0 6.726562 -0.320312 5.96875 -0.96875 C 5.21875 -1.613281 4.84375 -2.671875 4.84375 -4.140625 L 4.84375 -13.125 L 3.234375 -13.125 L 3.234375 -16.5625 L 4.84375 -16.5625 L 4.84375 -21.65625 L 9.390625 -22.421875 L 9.390625 -16.5625 L 13.53125 -16.5625 L 13.53125 -13.125 L 9.390625 -13.125 L 9.390625 -3.640625 L 14.140625 -3.640625 L 13.53125 0 Z M 9.890625 0 "/></g></g></g><g fill="#8c52ff" fill-opacity="1"><g transform="translate(188.80532, 207.41899)"><g><path d="M 9.390625 -22.21875 L 9.390625 -14.828125 C 9.722656 -15.429688 10.253906 -15.867188 10.984375 -16.140625 C 11.710938 -16.421875 12.695312 -16.5625 13.9375 -16.5625 L 18.984375 -16.5625 C 20.835938 -16.5625 22.140625 -16.238281 22.890625 -15.59375 C 23.648438 -14.945312 24.03125 -13.890625 24.03125 -12.421875 L 24.03125 0 L 19.484375 0 L 19.484375 -12.921875 L 11.203125 -12.921875 C 10.679688 -12.921875 10.25 -12.75 9.90625 -12.40625 C 9.5625 -12.0625 9.390625 -11.628906 9.390625 -11.109375 L 9.390625 0 L 4.84375 0 L 4.84375 -22.21875 Z M 9.390625 -22.21875 "/></g></g></g><g fill="#8c52ff" fill-opacity="1"><g transform="translate(216.066003, 207.41899)"><g><path d="M 5.453125 -17.875 C 5.453125 -19.40625 5.863281 -20.507812 6.6875 -21.1875 C 7.507812 -21.875 8.914062 -22.21875 10.90625 -22.21875 L 23.21875 -22.21875 C 25.21875 -22.21875 26.625 -21.875 27.4375 -21.1875 C 28.257812 -20.507812 28.671875 -19.40625 28.671875 -17.875 L 28.671875 -16.859375 L 23.734375 -16.0625 L 23.734375 -18.375 L 10.40625 -18.375 L 10.40625 -13.421875 L 23.21875 -13.421875 C 25.21875 -13.421875 26.625 -13.082031 27.4375 -12.40625 C 28.257812 -11.726562 28.671875 -10.625 28.671875 -9.09375 L 28.671875 -4.546875 C 28.671875 -2.910156 28.265625 -1.742188 27.453125 -1.046875 C 26.648438 -0.347656 25.238281 0 23.21875 0 L 10.90625 0 C 8.882812 0 7.46875 -0.347656 6.65625 -1.046875 C 5.851562 -1.742188 5.453125 -2.910156 5.453125 -4.546875 L 5.453125 -6.265625 L 10.40625 -7.0625 L 10.40625 -4.03125 L 23.734375 -4.03125 L 23.734375 -9.796875 L 10.90625 -9.796875 C 8.882812 -9.796875 7.46875 -10.144531 6.65625 -10.84375 C 5.851562 -11.539062 5.453125 -12.707031 5.453125 -14.34375 Z M 5.453125 -17.875 "/></g></g></g><g fill="#8c52ff" fill-opacity="1"><g transform="translate(250.19234, 207.41899)"><g><path d="M 21.40625 -4.40625 L 21.40625 -4.140625 C 21.40625 -2.671875 21.023438 -1.613281 20.265625 -0.96875 C 19.515625 -0.320312 18.210938 0 16.359375 0 L 8.28125 0 C 6.425781 0 5.117188 -0.320312 4.359375 -0.96875 C 3.609375 -1.613281 3.234375 -2.671875 3.234375 -4.140625 L 3.234375 -12.625 C 3.234375 -14.007812 3.601562 -15.007812 4.34375 -15.625 C 5.09375 -16.25 6.40625 -16.5625 8.28125 -16.5625 L 16.359375 -16.5625 C 18.234375 -16.5625 19.539062 -16.25 20.28125 -15.625 C 21.03125 -15.007812 21.40625 -14.007812 21.40625 -12.625 L 21.40625 -6.765625 L 7.78125 -6.765625 L 7.78125 -3.640625 L 16.859375 -3.640625 L 16.859375 -5.15625 Z M 16.859375 -10 L 16.859375 -13.125 L 7.78125 -13.125 L 7.78125 -10 Z M 16.859375 -10 "/></g></g></g><g fill="#8c52ff" fill-opacity="1"><g transform="translate(274.82792, 207.41899)"><g><path d="M 16.765625 -10 L 16.765625 -13.125 L 7.78125 -13.125 L 7.78125 -3.640625 L 16.765625 -3.640625 L 16.765625 -6.765625 L 21.3125 -6.015625 L 21.3125 -4.140625 C 21.3125 -2.671875 20.929688 -1.613281 20.171875 -0.96875 C 19.421875 -0.320312 18.113281 0 16.25 0 L 8.28125 0 C 6.425781 0 5.117188 -0.320312 4.359375 -0.96875 C 3.609375 -1.613281 3.234375 -2.671875 3.234375 -4.140625 L 3.234375 -12.625 C 3.234375 -14.007812 3.601562 -15.007812 4.34375 -15.625 C 5.09375 -16.25 6.40625 -16.5625 8.28125 -16.5625 L 16.25 -16.5625 C 18.125 -16.5625 19.4375 -16.25 20.1875 -15.625 C 20.9375 -15.007812 21.3125 -14.007812 21.3125 -12.625 L 21.3125 -10.75 Z M 16.765625 -10 "/></g></g></g><g fill="#8c52ff" fill-opacity="1"><g transform="translate(299.362541, 207.41899)"><g><path d="M 17.875 0 L 17.875 -1.734375 C 17.539062 -1.128906 17.007812 -0.6875 16.28125 -0.40625 C 15.550781 -0.132812 14.566406 0 13.328125 0 L 8.28125 0 C 6.425781 0 5.117188 -0.320312 4.359375 -0.96875 C 3.609375 -1.613281 3.234375 -2.671875 3.234375 -4.140625 L 3.234375 -16.5625 L 7.78125 -16.5625 L 7.78125 -3.640625 L 16.0625 -3.640625 C 16.582031 -3.640625 17.015625 -3.8125 17.359375 -4.15625 C 17.703125 -4.5 17.875 -4.929688 17.875 -5.453125 L 17.875 -16.5625 L 22.421875 -16.5625 L 22.421875 0 Z M 17.875 0 "/></g></g></g><g fill="#8c52ff" fill-opacity="1"><g transform="translate(325.007788, 207.41899)"><g><path d="M 7.78125 0 L 3.234375 0 L 3.234375 -16.5625 L 7.78125 -16.5625 L 7.78125 -14.921875 C 8.113281 -15.484375 8.644531 -15.894531 9.375 -16.15625 C 10.101562 -16.425781 11.082031 -16.5625 12.3125 -16.5625 L 16.25 -16.5625 C 18.125 -16.5625 19.4375 -16.25 20.1875 -15.625 C 20.9375 -15.007812 21.3125 -14.007812 21.3125 -12.625 L 21.3125 -10.75 L 16.765625 -10 L 16.765625 -13.125 L 9.484375 -13.125 C 8.992188 -13.125 8.585938 -12.960938 8.265625 -12.640625 C 7.941406 -12.316406 7.78125 -11.90625 7.78125 -11.40625 Z M 7.78125 0 "/></g></g></g><g fill="#8c52ff" fill-opacity="1"><g transform="translate(347.926961, 207.41899)"><g><path d="M 21.40625 -4.40625 L 21.40625 -4.140625 C 21.40625 -2.671875 21.023438 -1.613281 20.265625 -0.96875 C 19.515625 -0.320312 18.210938 0 16.359375 0 L 8.28125 0 C 6.425781 0 5.117188 -0.320312 4.359375 -0.96875 C 3.609375 -1.613281 3.234375 -2.671875 3.234375 -4.140625 L 3.234375 -12.625 C 3.234375 -14.007812 3.601562 -15.007812 4.34375 -15.625 C 5.09375 -16.25 6.40625 -16.5625 8.28125 -16.5625 L 16.359375 -16.5625 C 18.234375 -16.5625 19.539062 -16.25 20.28125 -15.625 C 21.03125 -15.007812 21.40625 -14.007812 21.40625 -12.625 L 21.40625 -6.765625 L 7.78125 -6.765625 L 7.78125 -3.640625 L 16.859375 -3.640625 L 16.859375 -5.15625 Z M 16.859375 -10 L 16.859375 -13.125 L 7.78125 -13.125 L 7.78125 -10 Z M 16.859375 -10 "/></g></g></g><g clip-path="url(#148f869064)"><path fill="#000000" d="M 88.25 169.5625 L 50.277344 169.5625 C 49.890625 169.5625 49.507812 169.601562 49.132812 169.675781 C 48.753906 169.75 48.386719 169.863281 48.03125 170.011719 C 47.671875 170.15625 47.335938 170.339844 47.015625 170.550781 C 46.695312 170.765625 46.398438 171.011719 46.125 171.28125 C 45.851562 171.554688 45.609375 171.851562 45.394531 172.171875 C 45.179688 172.492188 45 172.832031 44.851562 173.1875 C 44.703125 173.542969 44.59375 173.910156 44.519531 174.289062 C 44.441406 174.667969 44.40625 175.046875 44.40625 175.433594 C 44.40625 175.820312 44.441406 176.199219 44.519531 176.578125 C 44.59375 176.957031 44.703125 177.324219 44.851562 177.679688 C 45 178.035156 45.179688 178.375 45.394531 178.695312 C 45.609375 179.015625 45.851562 179.3125 46.125 179.585938 C 46.398438 179.855469 46.695312 180.101562 47.015625 180.316406 C 47.335938 180.527344 47.671875 180.710938 48.03125 180.855469 C 48.386719 181.003906 48.753906 181.117188 49.132812 181.191406 C 49.507812 181.265625 49.890625 181.304688 50.277344 181.304688 L 88.25 181.304688 C 88.851562 181.304688 89.453125 181.339844 90.046875 181.398438 C 90.644531 181.460938 91.238281 181.550781 91.828125 181.667969 C 92.417969 181.789062 93 181.933594 93.574219 182.109375 C 94.148438 182.285156 94.710938 182.488281 95.265625 182.71875 C 95.820312 182.949219 96.363281 183.207031 96.890625 183.492188 C 97.421875 183.777344 97.9375 184.085938 98.433594 184.417969 C 98.933594 184.753906 99.414062 185.113281 99.878906 185.492188 C 100.34375 185.875 100.789062 186.277344 101.214844 186.703125 C 101.636719 187.125 102.039062 187.570312 102.421875 188.035156 C 102.804688 188.5 103.160156 188.980469 103.496094 189.480469 C 103.828125 189.980469 104.136719 190.492188 104.421875 191.023438 C 104.707031 191.550781 104.964844 192.09375 105.195312 192.648438 C 105.425781 193.203125 105.628906 193.765625 105.804688 194.339844 C 105.980469 194.914062 106.128906 195.496094 106.246094 196.085938 C 106.367188 196.675781 106.457031 197.269531 106.515625 197.867188 C 106.578125 198.464844 106.609375 199.0625 106.609375 199.664062 C 106.609375 200.265625 106.578125 200.863281 106.515625 201.460938 C 106.457031 202.058594 106.367188 202.652344 106.246094 203.238281 C 106.128906 203.828125 105.980469 204.410156 105.804688 204.984375 C 105.628906 205.558594 105.425781 206.125 105.195312 206.679688 C 104.964844 207.234375 104.707031 207.773438 104.421875 208.304688 C 104.140625 208.832031 103.828125 209.347656 103.496094 209.847656 C 103.160156 210.34375 102.804688 210.828125 102.421875 211.292969 C 102.039062 211.753906 101.636719 212.199219 101.214844 212.625 C 100.789062 213.050781 100.34375 213.453125 99.878906 213.832031 C 99.414062 214.214844 98.933594 214.574219 98.433594 214.90625 C 97.9375 215.242188 97.421875 215.550781 96.890625 215.832031 C 96.363281 216.117188 95.820312 216.375 95.265625 216.605469 C 94.710938 216.835938 94.148438 217.039062 93.574219 217.214844 C 93 217.390625 92.417969 217.539062 91.828125 217.65625 C 91.238281 217.777344 90.644531 217.867188 90.046875 217.925781 C 89.453125 217.988281 88.851562 218.019531 88.25 218.023438 L 6.113281 218.023438 L 6.113281 229.761719 L 88.25 229.761719 C 89.238281 229.761719 90.21875 229.710938 91.199219 229.613281 C 92.179688 229.511719 93.152344 229.367188 94.117188 229.171875 C 95.085938 228.980469 96.039062 228.738281 96.980469 228.449219 C 97.921875 228.164062 98.847656 227.832031 99.757812 227.453125 C 100.667969 227.074219 101.558594 226.652344 102.425781 226.1875 C 103.292969 225.722656 104.136719 225.214844 104.957031 224.667969 C 105.777344 224.121094 106.566406 223.535156 107.328125 222.910156 C 108.089844 222.285156 108.816406 221.621094 109.515625 220.925781 C 110.210938 220.230469 110.871094 219.5 111.496094 218.738281 C 112.121094 217.976562 112.710938 217.1875 113.257812 216.371094 C 113.804688 215.550781 114.3125 214.707031 114.777344 213.839844 C 115.242188 212.96875 115.664062 212.082031 116.042969 211.171875 C 116.417969 210.261719 116.753906 209.335938 117.039062 208.394531 C 117.328125 207.449219 117.566406 206.496094 117.761719 205.53125 C 117.957031 204.566406 118.101562 203.59375 118.199219 202.613281 C 118.300781 201.632812 118.351562 200.648438 118.351562 199.664062 C 118.351562 198.679688 118.300781 197.695312 118.199219 196.714844 C 118.101562 195.734375 117.957031 194.761719 117.761719 193.796875 C 117.566406 192.832031 117.328125 191.875 117.039062 190.933594 C 116.753906 189.992188 116.421875 189.066406 116.042969 188.15625 C 115.664062 187.246094 115.242188 186.355469 114.777344 185.488281 C 114.3125 184.621094 113.804688 183.777344 113.257812 182.957031 C 112.710938 182.140625 112.125 181.347656 111.496094 180.585938 C 110.871094 179.824219 110.210938 179.097656 109.515625 178.398438 C 108.820312 177.703125 108.089844 177.042969 107.328125 176.417969 C 106.566406 175.792969 105.777344 175.207031 104.957031 174.65625 C 104.140625 174.109375 103.296875 173.605469 102.425781 173.136719 C 101.558594 172.671875 100.667969 172.25 99.757812 171.875 C 98.851562 171.496094 97.921875 171.164062 96.980469 170.875 C 96.039062 170.589844 95.085938 170.347656 94.117188 170.152344 C 93.152344 169.960938 92.179688 169.8125 91.199219 169.714844 C 90.21875 169.617188 89.238281 169.566406 88.25 169.5625 Z M 88.25 169.5625 " fill-opacity="1" fill-rule="nonzero"/></g><g clip-path="url(#d788db5a0e)"><path fill="#000000" d="M 47.21875 145.214844 C 46.234375 145.21875 45.25 145.269531 44.269531 145.367188 C 43.289062 145.464844 42.316406 145.613281 41.351562 145.804688 C 40.386719 146 39.429688 146.242188 38.488281 146.527344 C 37.546875 146.816406 36.621094 147.148438 35.710938 147.527344 C 34.800781 147.902344 33.910156 148.324219 33.042969 148.789062 C 32.175781 149.257812 31.332031 149.761719 30.511719 150.308594 C 29.695312 150.859375 28.902344 151.445312 28.140625 152.070312 C 27.382812 152.695312 26.652344 153.355469 25.957031 154.050781 C 25.257812 154.75 24.597656 155.476562 23.972656 156.238281 C 23.347656 157 22.761719 157.792969 22.214844 158.609375 C 21.664062 159.429688 21.160156 160.273438 20.695312 161.140625 C 20.226562 162.007812 19.804688 162.898438 19.429688 163.808594 C 19.050781 164.71875 18.71875 165.644531 18.429688 166.585938 C 18.144531 167.527344 17.902344 168.480469 17.707031 169.449219 C 17.515625 170.414062 17.367188 171.386719 17.269531 172.367188 C 17.171875 173.347656 17.121094 174.332031 17.117188 175.316406 C 17.121094 176.300781 17.171875 177.285156 17.269531 178.261719 C 17.367188 179.242188 17.515625 180.21875 17.707031 181.183594 C 17.902344 182.148438 18.144531 183.101562 18.429688 184.046875 C 18.71875 184.988281 19.050781 185.914062 19.429688 186.824219 C 19.804688 187.734375 20.226562 188.621094 20.695312 189.492188 C 21.160156 190.359375 21.664062 191.203125 22.214844 192.019531 C 22.761719 192.839844 23.347656 193.628906 23.972656 194.390625 C 24.597656 195.152344 25.257812 195.882812 25.957031 196.578125 C 26.652344 197.273438 27.382812 197.9375 28.140625 198.5625 C 28.902344 199.1875 29.695312 199.773438 30.511719 200.320312 C 31.332031 200.867188 32.175781 201.375 33.042969 201.839844 C 33.910156 202.304688 34.800781 202.726562 35.710938 203.105469 C 36.621094 203.484375 37.546875 203.816406 38.488281 204.101562 C 39.429688 204.390625 40.386719 204.632812 41.351562 204.824219 C 42.316406 205.019531 43.289062 205.164062 44.269531 205.265625 C 45.25 205.363281 46.234375 205.414062 47.21875 205.414062 L 85.195312 205.414062 C 85.578125 205.414062 85.960938 205.378906 86.339844 205.300781 C 86.714844 205.226562 87.082031 205.113281 87.4375 204.96875 C 87.792969 204.820312 88.132812 204.636719 88.453125 204.425781 C 88.773438 204.210938 89.070312 203.964844 89.339844 203.695312 C 89.613281 203.421875 89.855469 203.125 90.070312 202.804688 C 90.285156 202.484375 90.464844 202.144531 90.613281 201.789062 C 90.757812 201.433594 90.871094 201.066406 90.945312 200.691406 C 91.019531 200.3125 91.058594 199.929688 91.058594 199.546875 C 91.058594 199.160156 91.019531 198.777344 90.945312 198.398438 C 90.871094 198.023438 90.757812 197.65625 90.613281 197.300781 C 90.464844 196.945312 90.285156 196.605469 90.070312 196.285156 C 89.855469 195.964844 89.613281 195.667969 89.339844 195.394531 C 89.070312 195.125 88.773438 194.878906 88.453125 194.664062 C 88.132812 194.453125 87.792969 194.269531 87.4375 194.121094 C 87.082031 193.976562 86.714844 193.863281 86.339844 193.789062 C 85.960938 193.710938 85.578125 193.675781 85.195312 193.675781 L 47.21875 193.675781 C 46.617188 193.671875 46.019531 193.640625 45.421875 193.578125 C 44.824219 193.519531 44.230469 193.429688 43.640625 193.308594 C 43.054688 193.191406 42.472656 193.042969 41.898438 192.867188 C 41.324219 192.691406 40.757812 192.488281 40.203125 192.257812 C 39.648438 192.027344 39.105469 191.769531 38.578125 191.488281 C 38.046875 191.203125 37.535156 190.894531 37.035156 190.558594 C 36.535156 190.226562 36.054688 189.867188 35.589844 189.488281 C 35.125 189.105469 34.679688 188.703125 34.257812 188.277344 C 33.832031 187.851562 33.429688 187.410156 33.046875 186.945312 C 32.667969 186.480469 32.308594 186 31.972656 185.5 C 31.640625 185 31.332031 184.484375 31.046875 183.957031 C 30.761719 183.425781 30.507812 182.886719 30.273438 182.332031 C 30.042969 181.777344 29.839844 181.210938 29.664062 180.636719 C 29.488281 180.0625 29.34375 179.480469 29.222656 178.894531 C 29.105469 178.304688 29.015625 177.710938 28.953125 177.113281 C 28.890625 176.515625 28.859375 175.917969 28.859375 175.316406 C 28.859375 174.714844 28.890625 174.117188 28.953125 173.519531 C 29.015625 172.921875 29.105469 172.328125 29.222656 171.738281 C 29.339844 171.152344 29.488281 170.570312 29.664062 169.996094 C 29.839844 169.421875 30.042969 168.855469 30.273438 168.300781 C 30.503906 167.746094 30.761719 167.203125 31.046875 166.675781 C 31.332031 166.144531 31.640625 165.632812 31.972656 165.132812 C 32.308594 164.632812 32.667969 164.152344 33.046875 163.6875 C 33.429688 163.222656 33.832031 162.78125 34.257812 162.355469 C 34.679688 161.929688 35.125 161.527344 35.589844 161.144531 C 36.054688 160.765625 36.535156 160.40625 37.035156 160.074219 C 37.535156 159.738281 38.046875 159.429688 38.578125 159.144531 C 39.105469 158.863281 39.648438 158.605469 40.203125 158.375 C 40.757812 158.140625 41.320312 157.9375 41.898438 157.761719 C 42.472656 157.585938 43.050781 157.441406 43.640625 157.320312 C 44.230469 157.203125 44.824219 157.113281 45.421875 157.050781 C 46.019531 156.992188 46.617188 156.960938 47.21875 156.957031 L 129.355469 156.957031 L 129.355469 145.214844 Z M 47.21875 145.214844 " fill-opacity="1" fill-rule="nonzero"/></g></svg>